<?xml version="1.0" encoding="UTF-8"?>
<svg id="Camada_2" data-name="Camada 2" xmlns="http://www.w3.org/2000/svg" viewBox="0 0 227.46 254.38">
  <defs>
    <style>
      .cls-1, .cls-2 {
        stroke-width: 0px;
      }

      .cls-2 {
        fill: #fff;
      }
    </style>
  </defs>
  <g id="Dark">
    <g id="Full_Branco" data-name="Full Branco">
      <g id="Logo">
        <g>
          <circle class="cls-2" cx="113.73" cy="113.73" r="113.73"/>
          <path class="cls-2" d="M31.71,139.8c-3.05-6.35-5.22-13.01-6.51-19.81-.96-5.03-1.44-10.14-1.44-15.24,0-10.93,2.26-21.7,6.48-31.64,4.27-10.04,10.54-19.24,18.52-26.88,8.93-8.55,19.34-14.66,30.38-18.34,8.3-2.76,16.96-4.14,25.61-4.14,5.11,0,10.21.48,15.24,1.44,6.8,1.3,13.46,3.47,19.81,6.51,7.51,3.6,14.58,8.44,20.91,14.49,5.56,5.32,10.18,11.64,12.4,19.09,1.35,4.53,1.73,9.1,1.35,13.65-.78,9.55-4.89,19.01-10.41,27.79-7.34,11.68-17.19,22.16-25.03,30.06-8.36,8.41-17.02,16.6-26.69,23.5-10.29,7.35-21.77,13.22-33.39,14.17-4.55.37-9.12,0-13.65-1.35-7.45-2.21-13.77-6.84-19.09-12.4-6.06-6.33-10.89-13.4-14.49-20.91Z"/>
          <path class="cls-1" d="M139.68,139.68c23.26-23.26,64.3-67.83,27.82-104.32-36.49-36.49-95.65-36.49-132.13,0-36.49,36.49-36.49,95.65,0,132.13,36.49,36.49,81.06-4.55,104.32-27.82ZM34.35,137.76c-2.91-6.07-4.99-12.45-6.23-18.95-.92-4.81-1.38-9.7-1.38-14.59,0-10.46,2.16-20.76,6.2-30.27,4.08-9.61,10.08-18.4,17.72-25.71,8.54-8.18,18.5-14.03,29.07-17.54,7.94-2.64,16.22-3.96,24.51-3.96,4.89,0,9.77.46,14.59,1.38,6.5,1.24,12.88,3.32,18.95,6.23,7.19,3.45,13.95,8.07,20.01,13.86,5.32,5.09,9.74,11.14,11.86,18.26,1.29,4.33,1.65,8.71,1.3,13.06-.75,9.13-4.68,18.18-9.96,26.58-7.03,11.18-16.44,21.2-23.95,28.76-8,8.05-16.29,15.88-25.54,22.49-9.85,7.03-20.83,12.65-31.94,13.56-4.36.36-8.73,0-13.06-1.3-7.12-2.12-13.18-6.54-18.26-11.86-5.79-6.06-10.42-12.82-13.86-20.01Z"/>
        </g>
      </g>
    </g>
  </g>
</svg>